<?xml version="1.0" standalone="no"?>
<!DOCTYPE svg PUBLIC "-//W3C//DTD SVG 20010904//EN"
 "http://www.w3.org/TR/2001/REC-SVG-20010904/DTD/svg10.dtd">
<svg version="1.0" xmlns="http://www.w3.org/2000/svg"
 width="423.000000pt" height="423.000000pt" viewBox="0 0 423.000000 423.000000"
 preserveAspectRatio="xMidYMid meet">
<metadata>
Created by potrace 1.11, written by Peter Selinger 2001-2013
</metadata>
<g transform="translate(0.000000,423.000000) scale(0.100000,-0.100000)"
fill="#000000" stroke="none">
<path d="M1951 4218 c-492 -40 -947 -270 -1286 -649 -233 -260 -405 -631 -459
-989 -24 -157 -24 -433 -1 -565 83 -464 256 -799 572 -1109 l53 -51 -80 -179
c-44 -99 -78 -182 -75 -184 2 -3 177 -5 389 -5 211 0 390 -3 396 -7 9 -6 -3
-61 -44 -210 -31 -111 -55 -205 -52 -207 5 -6 18 -7 156 -18 47 -3 108 -8 135
-11 50 -4 86 -7 260 -20 50 -3 93 -8 97 -10 8 -5 18 9 23 33 7 32 65 328 65
331 0 1 7 2 15 2 8 0 15 -1 15 -3 0 -2 16 -84 35 -183 19 -98 35 -180 35 -180
0 -1 15 0 33 1 17 2 88 6 157 9 120 6 172 9 380 22 52 3 96 7 98 9 2 2 -22 99
-54 215 -46 168 -55 213 -45 220 8 4 186 8 397 7 211 0 386 2 388 4 5 4 -59
156 -125 298 l-30 64 77 76 c230 228 408 528 494 835 23 83 23 82 45 201 72
384 12 807 -166 1171 -352 720 -1103 1148 -1898 1082z m-451 -1693 c237 -39
444 -249 485 -490 15 -93 -8 -303 -36 -320 -5 -4 -9 -13 -9 -21 0 -24 -67
-124 -119 -177 -76 -79 -201 -148 -312 -173 -54 -12 -175 -11 -237 2 -37 7
-104 32 -148 54 -210 103 -339 318 -329 550 4 105 9 129 42 210 106 261 381
412 663 365z m1586 -4 c107 -20 224 -87 311 -179 147 -155 200 -402 130 -601
-59 -168 -185 -300 -348 -365 -312 -123 -664 35 -782 351 -35 92 -40 135 -36
278 2 45 51 184 86 244 52 88 149 175 250 223 125 61 242 76 389 49z m-919
-1254 c25 -26 193 -378 193 -406 0 -21 -10 -38 -37 -61 -41 -37 -107 -69 -140
-70 -25 0 -63 43 -63 74 -1 13 -6 7 -15 -18 -15 -42 -29 -56 -58 -56 -30 0
-88 29 -134 66 -34 28 -43 42 -43 67 0 45 179 395 211 413 26 15 67 10 86 -9z"/>
</g>
</svg>
